<svg width="32" height="32" viewBox="0 0 32 32" fill="none" xmlns="http://www.w3.org/2000/svg">
<path d="M20.6667 6.66669C22.5393 6.66669 23.4756 6.66669 24.1482 7.1161C24.4394 7.31066 24.6894 7.56066 24.8839 7.85183C25.3333 8.52443 25.3333 9.46074 25.3333 11.3334V24C25.3333 26.5142 25.3333 27.7713 24.5523 28.5523C23.7712 29.3334 22.5142 29.3334 20 29.3334H12C9.48584 29.3334 8.22876 29.3334 7.44771 28.5523C6.66667 27.7713 6.66667 26.5142 6.66667 24V11.3334C6.66667 9.46074 6.66667 8.52443 7.11608 7.85183C7.31064 7.56066 7.56064 7.31066 7.85181 7.1161C8.52441 6.66669 9.46072 6.66669 11.3333 6.66669" stroke="#33363F" stroke-width="2"/>
<path d="M12 6.66667C12 5.19391 13.1939 4 14.6667 4H17.3333C18.8061 4 20 5.19391 20 6.66667C20 8.13943 18.8061 9.33333 17.3333 9.33333H14.6667C13.1939 9.33333 12 8.13943 12 6.66667Z" stroke="#33363F" stroke-width="2"/>
<path d="M12 16L20 16" stroke="#33363F" stroke-width="2" stroke-linecap="round"/>
<path d="M12 21.3333L17.3333 21.3333" stroke="#33363F" stroke-width="2" stroke-linecap="round"/>
</svg>
