<svg width="32" height="32" viewBox="0 0 32 32" fill="none" xmlns="http://www.w3.org/2000/svg">
<path d="M20.6667 6.66666C22.5393 6.66666 23.4756 6.66666 24.1482 7.11607C24.4394 7.31063 24.6894 7.56063 24.8839 7.8518C25.3333 8.5244 25.3333 9.46071 25.3333 11.3333V24C25.3333 26.5141 25.3333 27.7712 24.5523 28.5523C23.7712 29.3333 22.5142 29.3333 20 29.3333H12C9.48584 29.3333 8.22876 29.3333 7.44771 28.5523C6.66667 27.7712 6.66667 26.5141 6.66667 24V11.3333C6.66667 9.46071 6.66667 8.5244 7.11608 7.8518C7.31064 7.56063 7.56064 7.31063 7.85181 7.11607C8.52441 6.66666 9.46072 6.66666 11.3333 6.66666" stroke="#33363F" stroke-width="2"/>
<path d="M12 6.66667C12 5.19391 13.1939 4 14.6667 4H17.3333C18.8061 4 20 5.19391 20 6.66667C20 8.13943 18.8061 9.33333 17.3333 9.33333H14.6667C13.1939 9.33333 12 8.13943 12 6.66667Z" stroke="#33363F" stroke-width="2"/>
<path d="M12 16L20 16" stroke="#33363F" stroke-width="2" stroke-linecap="round"/>
<path d="M12 21.3333L17.3333 21.3333" stroke="#33363F" stroke-width="2" stroke-linecap="round"/>
</svg>
