<svg width="31" height="31" viewBox="0 0 31 31" fill="none" xmlns="http://www.w3.org/2000/svg">
<path d="M3.22917 19.5042C3.22917 18.7808 3.22917 18.4191 3.36995 18.1428C3.49379 17.8997 3.69139 17.7021 3.93443 17.5783C4.21073 17.4375 4.57243 17.4375 5.29583 17.4375H5.60205C5.91807 17.4375 6.07607 17.4375 6.22476 17.4732C6.35659 17.5049 6.48262 17.5571 6.5982 17.6279C6.72858 17.7079 6.84028 17.8196 7.0637 18.0431L7.14454 18.124C7.36799 18.3475 7.47971 18.4593 7.61011 18.5392C7.72571 18.6101 7.85176 18.6623 7.98361 18.6939C8.13232 18.7296 8.29036 18.7296 8.60642 18.7296L10.2039 18.7294C10.9274 18.7293 11.2891 18.7293 11.5655 18.8701C11.8085 18.9939 12.0062 19.1915 12.13 19.4345C12.2708 19.7109 12.2708 20.0726 12.2708 20.7961V23.1208C12.2708 23.8442 12.2708 24.2059 12.1301 24.4822C12.0062 24.7253 11.8086 24.9229 11.5656 25.0467C11.2893 25.1875 10.9276 25.1875 10.2042 25.1875H5.29583C4.57243 25.1875 4.21073 25.1875 3.93443 25.0467C3.69139 24.9229 3.49379 24.7253 3.36995 24.4822C3.22917 24.2059 3.22917 23.8442 3.22917 23.1208V19.5042Z" stroke="#222222" stroke-width="1.29167"/>
<path d="M18.7292 19.5042C18.7292 18.7808 18.7292 18.4191 18.8699 18.1428C18.9938 17.8997 19.1914 17.7021 19.4344 17.5783C19.7107 17.4375 20.0724 17.4375 20.7958 17.4375H21.102C21.4181 17.4375 21.5761 17.4375 21.7248 17.4732C21.8566 17.5049 21.9826 17.5571 22.0982 17.6279C22.2286 17.7079 22.3403 17.8196 22.5637 18.0431L22.6445 18.124C22.868 18.3475 22.9797 18.4593 23.1101 18.5392C23.2257 18.6101 23.3518 18.6623 23.4836 18.6939C23.6323 18.7296 23.7904 18.7296 24.1064 18.7296L25.7039 18.7294C26.4274 18.7293 26.7891 18.7293 27.0655 18.8701C27.3085 18.9939 27.5062 19.1915 27.63 19.4345C27.7708 19.7109 27.7708 20.0726 27.7708 20.7961V23.1208C27.7708 23.8442 27.7708 24.2059 27.63 24.4822C27.5062 24.7253 27.3086 24.9229 27.0656 25.0467C26.7893 25.1875 26.4276 25.1875 25.7042 25.1875H20.7958C20.0724 25.1875 19.7107 25.1875 19.4344 25.0467C19.1914 24.9229 18.9938 24.7253 18.8699 24.4822C18.7292 24.2059 18.7292 23.8442 18.7292 23.1208V19.5042Z" stroke="#222222" stroke-width="1.29167"/>
<path d="M10.9792 7.87917C10.9792 7.15577 10.9792 6.79406 11.12 6.51776C11.2438 6.27472 11.4414 6.07712 11.6844 5.95328C11.9607 5.8125 12.3224 5.8125 13.0458 5.8125H13.3521C13.6681 5.8125 13.8261 5.8125 13.9748 5.84821C14.1066 5.87986 14.2326 5.93208 14.3482 6.00293C14.4786 6.08285 14.5903 6.1946 14.8137 6.41811L14.8945 6.49898C15.118 6.72252 15.2297 6.83429 15.3601 6.91421C15.4757 6.98507 15.6018 7.03729 15.7336 7.06894C15.8823 7.10464 16.0404 7.10462 16.3564 7.10459L17.9539 7.1044C18.6774 7.10432 19.0391 7.10428 19.3155 7.24505C19.5586 7.36888 19.7562 7.56648 19.88 7.80954C20.0208 8.08586 20.0208 8.44759 20.0208 9.17107V11.4958C20.0208 12.2192 20.0208 12.5809 19.8801 12.8572C19.7562 13.1003 19.5586 13.2979 19.3156 13.4217C19.0393 13.5625 18.6776 13.5625 17.9542 13.5625H13.0458C12.3224 13.5625 11.9607 13.5625 11.6844 13.4217C11.4414 13.2979 11.2438 13.1003 11.12 12.8572C10.9792 12.5809 10.9792 12.2192 10.9792 11.4958V7.87917Z" stroke="#222222" stroke-width="1.29167"/>
<path fill-rule="evenodd" clip-rule="evenodd" d="M9.04167 9.04167L6.45833 7.10417V8.39586C6.16187 8.39604 5.9034 8.39786 5.68655 8.41558C5.43122 8.43644 5.17726 8.4825 4.93289 8.60701C4.56833 8.79277 4.27193 9.08917 4.08618 9.45373C3.96166 9.6981 3.9156 9.95206 3.89474 10.2074C3.87498 10.4493 3.87499 10.743 3.875 11.0834V11.1083V15.5H5.16667V11.1083C5.16667 10.736 5.16717 10.4956 5.18212 10.3126C5.19646 10.1371 5.22079 10.0721 5.23706 10.0401C5.29898 9.91861 5.39778 9.81981 5.5193 9.7579C5.55123 9.74163 5.61628 9.71729 5.79173 9.70296C5.95263 9.68981 6.15795 9.68784 6.45833 9.68755V10.9792L9.04167 9.04167ZM21.9583 9.04167L24.5417 7.10417V8.39586C24.8381 8.39604 25.0966 8.39786 25.3135 8.41558C25.5688 8.43644 25.8227 8.4825 26.0671 8.60701C26.4317 8.79277 26.7281 9.08917 26.9138 9.45373C27.0383 9.6981 27.0844 9.95206 27.1053 10.2074C27.125 10.4493 27.125 10.743 27.125 11.0834V11.0835V11.1083V15.5H25.8333V11.1083C25.8333 10.736 25.8328 10.4956 25.8179 10.3126C25.8035 10.1371 25.7792 10.0721 25.7629 10.0401C25.701 9.91861 25.6022 9.81981 25.4807 9.7579C25.4488 9.74163 25.3837 9.71729 25.2083 9.70296C25.0474 9.68981 24.842 9.68784 24.5417 9.68755V10.9792L21.9583 9.04167Z" fill="#2A4157" fill-opacity="0.24"/>
</svg>
